<?xml version="1.0" encoding="UTF-8"?><svg id="Layer_2" xmlns="http://www.w3.org/2000/svg" viewBox="0 0 107.19 107.97"><defs><style>.cls-1{stroke:#fff;stroke-miterlimit:10;}.cls-1,.cls-2{fill:#fff8ec;}.cls-3{fill:#414042;}.cls-3,.cls-2{stroke-width:0px;}</style></defs><g id="Layer_1-2"><path class="cls-2" d="m3.59,12.1C10.3,3.23,24.08-2.59,33.6,1.15c14.58,5.72,9.81,30.14,24.32,35.62,12.64,4.78,24.42-10.88,37.25-3.8,4.11,2.27,9.06,6.83,9.49,12.34.61,7.72-8.07,10.19-7.97,18.05.12,8.93,11.38,11.74,10.44,19.14-.94,7.35-12.89,11.13-13.49,11.31-10.45,3.17-14.05-3.2-24.8-2.18-14.52,1.39-15.45,13.75-31.09,16.06-.71.1-15.83,2.15-24.2-6.88-5.43-5.87-5.56-13.34-5.69-21.35C7.11,34.69-6.23,25.1,3.59,12.1Z"/><path class="cls-3" d="m15.3,5.34c4.57-2.27,10-2.47,14.29-1.13,16.67,5.21,12.56,32.68,27.08,37.74,11.83,4.13,22.41-11.38,35.73-4.91,1.29.63,6.53,3.17,7.46,7.81,1.3,6.49-7.35,9.59-7.38,17.23-.02,8.46,10.59,10.88,9.67,18.27-.68,5.43-7.14,9.96-12.49,10.79-2.82.44-3.74-.4-10.05-1.26,0,0-7.03-.97-12.9-.81-13.04.34-15.04,12.82-28.78,15.32-7.74,1.41-17.13-.89-22.4-6.57-4.25-4.58-2.85-8.04-5.69-30.3-1.82-14.28-2.73-21.42-3.94-28.22-1.8-10.22-2.98-14.37-1.13-20.38.61-1.97,3.04-9.87,10.53-13.59Z"/><path class="cls-2" d="m27.7,63.29l-3.23-9.88h1.38l1.54,4.87c.43,1.33.79,2.54,1.06,3.7h.03c.28-1.14.69-2.39,1.13-3.68l1.67-4.88h1.36l-3.53,9.88h-1.41Z"/><path class="cls-2" d="m34.99,53.41v9.88h-1.28v-9.88h1.28Z"/><path class="cls-2" d="m37.22,53.54c.65-.13,1.57-.21,2.45-.21,1.36,0,2.24.25,2.86.81.5.44.78,1.11.78,1.88,0,1.31-.82,2.17-1.86,2.52v.04c.76.26,1.22.97,1.45,1.99.32,1.38.56,2.33.76,2.71h-1.32c-.16-.28-.38-1.13-.66-2.36-.29-1.36-.82-1.88-1.98-1.92h-1.2v4.28h-1.28v-9.75Zm1.28,4.5h1.31c1.36,0,2.23-.75,2.23-1.88,0-1.28-.92-1.83-2.27-1.85-.62,0-1.06.06-1.26.12v3.61Z"/><path class="cls-2" d="m45.11,53.41h1.28v4.77h.04c.26-.38.53-.73.78-1.06l3.02-3.71h1.58l-3.58,4.19,3.86,5.69h-1.51l-3.26-4.85-.94,1.08v3.77h-1.28v-9.88Z"/><path class="cls-2" d="m58.17,58.66h-3.84v3.56h4.28v1.07h-5.56v-9.88h5.34v1.07h-4.06v3.12h3.84v1.06Z"/><path class="cls-2" d="m60.26,53.41h1.28v8.81h4.22v1.07h-5.5v-9.88Z"/><path class="cls-2" d="m68.46,53.41v9.88h-1.28v-9.88h1.28Z"/><path class="cls-2" d="m78.21,62.85c-.57.21-1.7.54-3.04.54-1.5,0-2.73-.38-3.7-1.3-.85-.82-1.38-2.14-1.38-3.68.01-2.95,2.04-5.1,5.35-5.1,1.14,0,2.04.25,2.46.46l-.31,1.04c-.53-.23-1.19-.43-2.19-.43-2.4,0-3.97,1.5-3.97,3.97s1.51,3.99,3.81,3.99c.84,0,1.41-.12,1.7-.26v-2.95h-2.01v-1.03h3.25v4.75Z"/><line class="cls-1" x1="19.15" y1="66.05" x2="86.88" y2="66.05"/><path class="cls-2" d="m17.47,72.27v1.5h1.73v-1.5h.47v3.58h-.47v-1.68h-1.73v1.68h-.46v-3.58h.46Z"/><path class="cls-2" d="m21.26,75.85l-1.17-3.58h.5l.56,1.76c.15.48.29.92.38,1.34h.01c.1-.42.25-.87.41-1.33l.61-1.77h.49l-1.28,3.58h-.51Z"/><path class="cls-2" d="m23.71,74.72l-.37,1.13h-.48l1.22-3.58h.56l1.22,3.58h-.49l-.38-1.13h-1.27Zm1.17-.36l-.35-1.03c-.08-.23-.13-.45-.19-.65h-.01c-.05.21-.11.43-.18.65l-.35,1.04h1.08Z"/><path class="cls-2" d="m26.39,72.32c.28-.04.62-.07.98-.07.66,0,1.14.15,1.45.45.32.29.5.71.5,1.29s-.18,1.06-.51,1.39c-.33.33-.89.52-1.58.52-.33,0-.61-.02-.84-.04v-3.52Zm.46,3.17c.12.02.29.03.47.03.99,0,1.52-.55,1.52-1.52,0-.84-.47-1.38-1.45-1.38-.24,0-.42.02-.54.05v2.83Z"/><path class="cls-2" d="m34.07,74.28c-.03-.5-.06-1.1-.05-1.54h-.02c-.12.42-.27.87-.45,1.36l-.63,1.74h-.35l-.58-1.7c-.17-.5-.31-.97-.42-1.39h0c-.01.45-.04,1.05-.07,1.58l-.1,1.53h-.44l.25-3.58h.59l.61,1.73c.15.44.27.83.36,1.21h.02c.09-.36.22-.75.38-1.21l.64-1.73h.59l.22,3.58h-.45l-.09-1.57Z"/><path class="cls-2" d="m35.85,74.72l-.37,1.13h-.48l1.22-3.58h.56l1.22,3.58h-.49l-.38-1.13h-1.27Zm1.17-.36l-.35-1.03c-.08-.23-.13-.45-.19-.65h-.01c-.05.21-.11.43-.18.65l-.35,1.04h1.08Z"/><path class="cls-2" d="m38.52,75.85v-3.58h.5l1.15,1.81c.27.42.47.8.64,1.16h.01c-.04-.48-.05-.92-.05-1.48v-1.5h.43v3.58h-.47l-1.14-1.82c-.25-.4-.49-.81-.67-1.19h-.02c.03.46.04.89.04,1.48v1.53h-.44Z"/><path class="cls-2" d="m43.15,72.32c.2-.04.52-.07.84-.07.46,0,.76.08.98.26.19.14.3.35.3.63,0,.35-.23.65-.61.79h0c.34.1.74.38.74.91,0,.31-.12.54-.3.72-.25.23-.65.33-1.24.33-.32,0-.56-.02-.72-.04v-3.52Zm.46,1.47h.42c.49,0,.78-.25.78-.6,0-.42-.32-.58-.79-.58-.21,0-.33.02-.41.03v1.15Zm0,1.71c.09.02.22.02.39.02.48,0,.92-.18.92-.7,0-.49-.42-.69-.92-.69h-.38v1.36Z"/><path class="cls-2" d="m46.03,72.27h.46v3.19h1.53v.39h-1.99v-3.58Z"/><path class="cls-2" d="m49,72.27v3.58h-.46v-3.58h.46Z"/><path class="cls-2" d="m50.59,75.85l-1.17-3.58h.5l.56,1.76c.15.48.29.92.38,1.34h.01c.1-.42.25-.87.41-1.33l.61-1.77h.49l-1.28,3.58h-.51Z"/><path class="cls-2" d="m54.62,74.17h-1.39v1.29h1.55v.39h-2.01v-3.58h1.93v.39h-1.47v1.13h1.39v.38Z"/><path class="cls-2" d="m55.39,72.32c.23-.05.57-.07.89-.07.49,0,.81.09,1.04.29.18.16.28.4.28.68,0,.47-.3.79-.67.91v.02c.28.09.44.35.53.72.12.5.2.84.28.98h-.48c-.06-.1-.14-.41-.24-.85-.11-.49-.3-.68-.72-.7h-.44v1.55h-.46v-3.53Zm.46,1.63h.47c.49,0,.81-.27.81-.68,0-.46-.33-.66-.82-.67-.22,0-.38.02-.46.04v1.31Z"/><path class="cls-2" d="m59.83,72.27v1.5h1.73v-1.5h.47v3.58h-.47v-1.68h-1.73v1.68h-.46v-3.58h.46Z"/><path class="cls-2" d="m63.62,75.85l-1.17-3.58h.5l.56,1.76c.15.48.29.92.38,1.34h.01c.1-.42.25-.87.41-1.33l.61-1.77h.49l-1.28,3.58h-.51Z"/><path class="cls-2" d="m66.08,74.72l-.37,1.13h-.48l1.22-3.58h.56l1.22,3.58h-.49l-.38-1.13h-1.27Zm1.17-.36l-.35-1.03c-.08-.23-.13-.45-.19-.65h-.01c-.05.21-.11.43-.18.65l-.35,1.04h1.08Z"/><path class="cls-2" d="m68.75,72.32c.28-.04.62-.07.98-.07.66,0,1.14.15,1.45.45.32.29.5.71.5,1.29s-.18,1.06-.51,1.39c-.33.33-.89.52-1.58.52-.33,0-.61-.02-.84-.04v-3.52Zm.46,3.17c.12.02.29.03.47.03.99,0,1.52-.55,1.52-1.52,0-.84-.47-1.38-1.45-1.38-.24,0-.42.02-.54.05v2.83Z"/><path class="cls-2" d="m76.43,74.28c-.03-.5-.06-1.1-.05-1.54h-.02c-.12.42-.27.87-.45,1.36l-.63,1.74h-.35l-.58-1.7c-.17-.5-.31-.97-.41-1.39h-.01c-.01.45-.04,1.05-.07,1.58l-.1,1.53h-.44l.25-3.58h.59l.61,1.73c.15.44.27.83.36,1.21h.02c.09-.36.22-.75.38-1.21l.64-1.73h.59l.22,3.58h-.45l-.09-1.57Z"/><path class="cls-2" d="m78.22,74.72l-.37,1.13h-.48l1.22-3.58h.56l1.22,3.58h-.49l-.38-1.13h-1.27Zm1.17-.36l-.35-1.03c-.08-.23-.13-.45-.19-.65h-.01c-.05.21-.11.43-.18.65l-.35,1.04h1.08Z"/><path class="cls-2" d="m80.89,75.85v-3.58h.5l1.15,1.81c.26.42.47.8.64,1.16h0c-.04-.48-.05-.92-.05-1.48v-1.5h.44v3.58h-.47l-1.14-1.82c-.25-.4-.49-.81-.67-1.19h-.02c.03.46.04.89.04,1.48v1.53h-.43Z"/><path class="cls-2" d="m87.37,74.17h-1.39v1.29h1.55v.39h-2.01v-3.58h1.93v.39h-1.47v1.13h1.39v.38Z"/><path class="cls-2" d="m88.13,72.32c.23-.05.57-.07.89-.07.49,0,.81.09,1.04.29.18.16.28.4.28.68,0,.47-.3.79-.67.91v.02c.28.09.44.35.53.72.12.5.2.84.28.98h-.48c-.06-.1-.14-.41-.24-.85-.11-.49-.3-.68-.72-.7h-.43v1.55h-.46v-3.53Zm.46,1.63h.47c.49,0,.81-.27.81-.68,0-.46-.33-.66-.82-.67-.22,0-.38.02-.46.04v1.31Z"/></g></svg>